<mxfile host="app.diagrams.net" modified="2024-03-27T05:39:40.806Z" agent="Mozilla/5.0 (Macintosh; Intel Mac OS X 10_15_7) AppleWebKit/537.36 (KHTML, like Gecko) Chrome/123.0.0.0 Safari/537.36" version="24.2.0" etag="5M-pU4jC2EQjXfYlv_qk" type="github">
  <diagram name="페이지-1" id="JfS_B3WYaYcaMVZM0vUi">
    <mxGraphModel>
      <root>
        <mxCell id="0" />
        <mxCell id="1" parent="0" />
      </root>
    </mxGraphModel>
  </diagram>
</mxfile>
